<svg xmlns="http://www.w3.org/2000/svg" width="920" height="360" viewBox="0 0 920 360">
<style>text{font-family:Arial,sans-serif;font-size:12px;fill:#202124}.title{font-size:17px;font-weight:700}.small{font-size:10px;fill:#5f6368}.label{font-weight:700}</style>
<rect width="100%" height="100%" fill="#fff"/>
<text class="title" x="24" y="30">Reference Tool Mix</text>
<text class="label" x="24" y="84">browser_take_screenshot</text>
<rect x="240" y="70" width="520" height="16" fill="#eef1f4"/>
<rect x="240" y="70" width="520.0" height="16" fill="#059669"/>
<text class="small" x="774" y="83">434</text>
<text class="label" x="24" y="114">browser_run_code</text>
<rect x="240" y="100" width="520" height="16" fill="#eef1f4"/>
<rect x="240" y="100" width="382.2" height="16" fill="#059669"/>
<text class="small" x="774" y="113">319</text>
<text class="label" x="24" y="144">browser_wait_for</text>
<rect x="240" y="130" width="520" height="16" fill="#eef1f4"/>
<rect x="240" y="130" width="347.5" height="16" fill="#059669"/>
<text class="small" x="774" y="143">290</text>
<text class="label" x="24" y="174">browser_mouse_click_xy</text>
<rect x="240" y="160" width="520" height="16" fill="#eef1f4"/>
<rect x="240" y="160" width="135.4" height="16" fill="#059669"/>
<text class="small" x="774" y="173">113</text>
<text class="label" x="24" y="204">browser_mouse_move_xy</text>
<rect x="240" y="190" width="520" height="16" fill="#eef1f4"/>
<rect x="240" y="190" width="135.4" height="16" fill="#059669"/>
<text class="small" x="774" y="203">113</text>
<text class="label" x="24" y="234">browser_type</text>
<rect x="240" y="220" width="520" height="16" fill="#eef1f4"/>
<rect x="240" y="220" width="62.3" height="16" fill="#059669"/>
<text class="small" x="774" y="233">52</text>
<text class="label" x="24" y="264">browser_mouse_wheel</text>
<rect x="240" y="250" width="520" height="16" fill="#eef1f4"/>
<rect x="240" y="250" width="55.1" height="16" fill="#059669"/>
<text class="small" x="774" y="263">46</text>
<text class="label" x="24" y="294">browser_close</text>
<rect x="240" y="280" width="520" height="16" fill="#eef1f4"/>
<rect x="240" y="280" width="33.5" height="16" fill="#059669"/>
<text class="small" x="774" y="293">28</text>
<text class="label" x="24" y="324">browser_navigate</text>
<rect x="240" y="310" width="520" height="16" fill="#eef1f4"/>
<rect x="240" y="310" width="33.5" height="16" fill="#059669"/>
<text class="small" x="774" y="323">28</text>
</svg>
