<svg xmlns="http://www.w3.org/2000/svg" width="1080" height="271" viewBox="0 0 1080 271">
<style>text{font-family:Arial,sans-serif;font-size:12px;fill:#202124}.title{font-size:17px;font-weight:700}.axis{fill:#5f6368}.small{font-size:10px;fill:#5f6368}</style>
<rect width="100%" height="100%" fill="#fff"/>
<text class="title" x="24" y="30">Qwen Latest-Batch Form Accuracy</text>
<text class="axis" x="24" y="52">Scored correctness per form/model</text>
<text class="small" x="24" y="89">text_qwen3_30b_a3b_instruct_2507:travel_reimbursement:run_0001</text>
<rect x="330" y="78" width="620" height="12" fill="#eef1f4"/>
<rect x="330" y="78" width="112.7" height="12" fill="#1a73e8"/>
<text class="small" x="958" y="89">2/11 (18.2%)</text>
<text class="small" x="24" y="111">text_qwen3_30b_a3b_instruct_2507:usability_test:run_0001</text>
<rect x="330" y="100" width="620" height="12" fill="#eef1f4"/>
<rect x="330" y="100" width="531.4" height="12" fill="#1a73e8"/>
<text class="small" x="958" y="111">6/7 (85.7%)</text>
<text class="small" x="24" y="133">text_qwen3_30b_a3b_instruct_2507:volunteer_shift:run_0001</text>
<rect x="330" y="122" width="620" height="12" fill="#eef1f4"/>
<rect x="330" y="122" width="620.0" height="12" fill="#1a73e8"/>
<text class="small" x="958" y="133">7/7 (100.0%)</text>
<text class="small" x="24" y="155">text_qwen3_30b_a3b_instruct_2507:wellbeing_check:run_0001</text>
<rect x="330" y="144" width="620" height="12" fill="#eef1f4"/>
<rect x="330" y="144" width="177.1" height="12" fill="#1a73e8"/>
<text class="small" x="958" y="155">2/7 (28.6%)</text>
<text class="small" x="24" y="177">vlm_qwen3_vl_30b_a3b_instruct:travel_reimbursement:run_0001</text>
<rect x="330" y="166" width="620" height="12" fill="#eef1f4"/>
<rect x="330" y="166" width="169.1" height="12" fill="#1a73e8"/>
<text class="small" x="958" y="177">3/11 (27.3%)</text>
<text class="small" x="24" y="199">vlm_qwen3_vl_30b_a3b_instruct:usability_test:run_0001</text>
<rect x="330" y="188" width="620" height="12" fill="#eef1f4"/>
<rect x="330" y="188" width="531.4" height="12" fill="#1a73e8"/>
<text class="small" x="958" y="199">6/7 (85.7%)</text>
<text class="small" x="24" y="221">vlm_qwen3_vl_30b_a3b_instruct:volunteer_shift:run_0001</text>
<rect x="330" y="210" width="620" height="12" fill="#eef1f4"/>
<rect x="330" y="210" width="620.0" height="12" fill="#1a73e8"/>
<text class="small" x="958" y="221">7/7 (100.0%)</text>
<text class="small" x="24" y="243">vlm_qwen3_vl_30b_a3b_instruct:wellbeing_check:run_0001</text>
<rect x="330" y="232" width="620" height="12" fill="#eef1f4"/>
<rect x="330" y="232" width="265.7" height="12" fill="#1a73e8"/>
<text class="small" x="958" y="243">3/7 (42.9%)</text>
</svg>
