<svg xmlns="http://www.w3.org/2000/svg" width="980" height="600" viewBox="0 0 980 600">
<style>text{font-family:Arial,sans-serif;font-size:12px;fill:#202124}.title{font-size:17px;font-weight:700}.axis{fill:#5f6368}.small{font-size:10px;fill:#5f6368}.label{font-size:12px;font-weight:700}.legend{font-size:11px;fill:#3c4043}</style>
<rect width="100%" height="100%" fill="#fff"/>
<text class="title" x="24" y="30">Thesis Efficiency Frontier</text>
<text class="axis" x="24" y="52">Higher exact success and lower action overhead is better</text>
<rect x="92" y="80" width="690" height="390" fill="#fafafa" stroke="#dadce0"/>
<line x1="92" y1="470.0" x2="782" y2="470.0" stroke="#eef1f4"/>
<text class="small" x="40" y="474.0">0%</text>
<line x1="92" y1="392.0" x2="782" y2="392.0" stroke="#eef1f4"/>
<text class="small" x="40" y="396.0">20%</text>
<line x1="92" y1="314.0" x2="782" y2="314.0" stroke="#eef1f4"/>
<text class="small" x="40" y="318.0">40%</text>
<line x1="92" y1="236.0" x2="782" y2="236.0" stroke="#eef1f4"/>
<text class="small" x="40" y="240.0">60%</text>
<line x1="92" y1="158.0" x2="782" y2="158.0" stroke="#eef1f4"/>
<text class="small" x="40" y="162.0">80%</text>
<line x1="92" y1="80.0" x2="782" y2="80.0" stroke="#eef1f4"/>
<text class="small" x="40" y="84.0">100%</text>
<line x1="92.0" y1="80" x2="92.0" y2="470" stroke="#f1f3f4"/>
<text class="small" x="82.0" y="490">0.0</text>
<line x1="264.5" y1="80" x2="264.5" y2="470" stroke="#f1f3f4"/>
<text class="small" x="254.5" y="490">0.2</text>
<line x1="437.0" y1="80" x2="437.0" y2="470" stroke="#f1f3f4"/>
<text class="small" x="427.0" y="490">0.5</text>
<line x1="609.5" y1="80" x2="609.5" y2="470" stroke="#f1f3f4"/>
<text class="small" x="599.5" y="490">0.8</text>
<line x1="782.0" y1="80" x2="782.0" y2="470" stroke="#f1f3f4"/>
<text class="small" x="772.0" y="490">1.0</text>
<circle cx="294.0" cy="401.4" r="7" fill="#2563eb"/>
<text class="small" x="304.0" y="405.4">Qwen Text</text>
<circle cx="294.0" cy="416.9" r="7" fill="#059669"/>
<text class="small" x="304.0" y="420.9">Qwen VLM</text>
<circle cx="241.2" cy="470.0" r="7" fill="#dc2626"/>
<text class="small" x="251.2" y="462.0">OpenCUA Native</text>
<circle cx="301.1" cy="367.5" r="7" fill="#7c3aed"/>
<text class="small" x="311.1" y="371.5">OpenCUA MCP</text>
<text class="axis" x="359.0" y="518">Median action overhead ratio</text>
<text class="axis" x="24" y="62">Exact success rate</text>
</svg>
