<svg xmlns="http://www.w3.org/2000/svg" width="1080" height="420" viewBox="0 0 1080 420">
<style>text{font-family:Arial,sans-serif;font-size:12px;fill:#202124}.title{font-size:17px;font-weight:700}.axis{fill:#5f6368}.small{font-size:10px;fill:#5f6368}.label{font-size:12px;font-weight:700}.legend{font-size:11px;fill:#3c4043}</style>
<rect width="100%" height="100%" fill="#fff"/>
<text class="title" x="24" y="30">Thesis Reference Coverage</text>
<text class="axis" x="24" y="52">Usable scripted references for efficiency comparisons</text>
<text class="label" x="24.0" y="108.0">Overall Reference</text>
<rect x="205" y="92" width="650" height="18" fill="#eef1f4"/>
<rect x="205" y="92" width="60.7" height="18" fill="#475569"/>
<text class="small" x="880" y="106">28/300 (9.3%)</text>
<text class="label" x="24.0" y="162.0">Qwen Text</text>
<rect x="205" y="146" width="650" height="18" fill="#eef1f4"/>
<rect x="205" y="146" width="54.8" height="18" fill="#2563eb"/>
<text class="small" x="880" y="160">21/249 (8.4%)</text>
<text class="label" x="24.0" y="216.0">Qwen VLM</text>
<rect x="205" y="200" width="650" height="18" fill="#eef1f4"/>
<rect x="205" y="200" width="62.3" height="18" fill="#059669"/>
<text class="small" x="880" y="214">21/219 (9.6%)</text>
<text class="label" x="24.0" y="270.0">OpenCUA Native</text>
<rect x="205" y="254" width="650" height="18" fill="#eef1f4"/>
<rect x="205" y="254" width="68.2" height="18" fill="#dc2626"/>
<text class="small" x="880" y="268">21/200 (10.5%)</text>
<text class="label" x="24.0" y="324.0">OpenCUA MCP</text>
<rect x="205" y="308" width="650" height="18" fill="#eef1f4"/>
<rect x="205" y="308" width="85.0" height="18" fill="#7c3aed"/>
<text class="small" x="880" y="322">17/130 (13.1%)</text>
</svg>
